<svg width="101" height="100" viewBox="0 0 101 100" fill="none" xmlns="http://www.w3.org/2000/svg">
<path d="M76.1877 10.75C86.2564 18.0009 93.9153 27.5428 96.5002 40C97.8944 56.6629 95.3745 68.9072 84.8283 82.0898C78.4115 89.2333 68.0885 95.3651 58.3847 96.177C41.322 96.6389 29.3964 94.1966 16.3752 82.5C6.11557 71.8908 4.01637 59.1242 4.22286 45.0078C4.68267 32.6958 11.3132 22.3417 20.0158 13.9258C36.3904 1.23288 58.6114 -0.116428 76.1877 10.75ZM49.5002 19C49.4486 19.8398 49.4486 19.8398 49.396 20.6965C49.226 23.2375 49.0198 25.7743 48.8127 28.3125C48.7592 29.1936 48.7057 30.0746 48.6506 30.9824C48.0858 37.4406 48.0858 37.4406 45.2307 40.168C39.5155 41.9095 35.222 39.0558 30.1877 36.4375C29.5425 36.1081 28.8973 35.7788 28.2326 35.4394C26.6523 34.6318 25.0759 33.8166 23.5002 33C23.5002 33.99 23.5002 34.98 23.5002 36C26.6563 38.1154 29.8464 40.0482 33.1682 41.8887C38.0705 44.8721 38.0705 44.8721 39.2326 47.9224C39.4671 50.2847 39.3393 51.7749 38.5002 54C36.3187 56.3963 33.7966 57.8978 31.0002 59.5C30.2848 59.9409 29.5693 60.3817 28.8322 60.8359C27.0705 61.9165 25.2872 62.9618 23.5002 64C23.8302 64.99 24.1602 65.98 24.5002 67C25.525 66.4109 26.5498 65.8218 27.6057 65.2148C28.9659 64.455 30.3266 63.6959 31.6877 62.9375C32.3612 62.5476 33.0348 62.1576 33.7287 61.7559C38.7878 58.9672 38.7878 58.9672 42.301 59.1289C44.5002 60 44.5002 60 47.5002 62C48.0244 63.9712 48.0244 63.9712 48.2307 66.3516C48.3112 67.2023 48.3918 68.0531 48.4748 68.9297C48.5451 69.8191 48.6153 70.7086 48.6877 71.625C48.8105 72.9708 48.8105 72.9708 48.9357 74.3437C49.1363 76.5617 49.3239 78.78 49.5002 81C50.1602 81 50.8202 81 51.5002 81C51.5518 80.1602 51.5518 80.1602 51.6044 79.3035C51.7744 76.7625 51.9806 74.2257 52.1877 71.6875C52.2412 70.8064 52.2947 69.9253 52.3498 69.0176C52.9146 62.5594 52.9146 62.5594 55.7697 59.832C58.9934 58.8497 60.3317 58.8797 63.5002 60C65.5984 61.1232 67.6604 62.3159 69.6877 63.5625C73.3469 66.093 73.3469 66.093 77.5002 67C75.829 62.0533 71.3185 60.1263 67.0236 57.707C64.6228 56.2011 62.7927 54.8377 61.8391 52.1067C61.6057 49.7602 61.7087 48.2261 62.5002 46C64.6826 43.6657 67.2205 42.2276 70.0002 40.6875C72.5703 39.1941 75.0267 37.6578 77.5002 36C77.5002 35.01 77.5002 34.02 77.5002 33C72.7344 34.7699 68.5675 37.2475 64.2189 39.8555C61.0462 41.1911 59.7189 41.0997 56.5002 40C53.5002 38 53.5002 38 52.976 36.0288C52.908 35.2433 52.8399 34.4578 52.7697 33.6484C52.6892 32.7976 52.6086 31.9469 52.5256 31.0703C52.4553 30.1808 52.3851 29.2914 52.3127 28.375C52.2308 27.4778 52.149 26.5806 52.0647 25.6562C51.8641 23.4383 51.6765 21.22 51.5002 19C50.8402 19 50.1802 19 49.5002 19ZM56.5002 19C56.4846 23.1198 56.4846 23.1198 57.5002 27C60.7631 29.5971 64.5885 30.6961 68.5002 32C71.177 30.6275 71.177 30.6275 73.5002 29C68.755 23.8235 63.7287 19.8762 56.5002 19ZM27.5002 28C28.9887 29.7117 30.291 30.8918 32.3127 31.9375C35.7816 32.0366 37.7631 29.98 40.5002 28C41.4902 27.67 42.4802 27.34 43.5002 27C44.8546 24.2912 44.5652 21.9907 44.5002 19C38.2659 19 31.7862 23.9395 27.5002 28ZM20.5002 40C19.3367 43.4905 19.3319 46.3228 19.3127 50C19.2985 51.2375 19.2843 52.475 19.2697 53.75C19.2415 57.1476 19.2415 57.1476 21.5002 60C24.1144 59.0168 24.1144 59.0168 26.5002 57C27.1064 53.5764 27.1064 53.5764 26.8127 49.8125C26.7676 48.5402 26.7225 47.2679 26.676 45.957C26.589 44.4933 26.589 44.4933 26.5002 43C24.5202 42.01 22.5402 41.02 20.5002 40ZM79.5002 40C76.886 40.9831 76.886 40.9831 74.5002 43C73.894 46.4236 73.894 46.4236 74.1877 50.1875C74.2328 51.4598 74.2779 52.7321 74.3244 54.043C74.3824 55.0188 74.4404 55.9946 74.5002 57C76.4802 57.99 78.4602 58.98 80.5002 60C81.6637 56.5095 81.6685 53.6772 81.6877 50C81.7019 48.7625 81.7161 47.525 81.7307 46.25C81.7589 42.8524 81.7589 42.8524 79.5002 40ZM32.5002 68C29.8234 69.3725 29.8234 69.3725 27.5002 71C32.2454 76.1765 37.2717 80.1238 44.5002 81C44.7099 76.8591 44.7099 76.8591 43.5002 73C41.7231 71.9099 41.7231 71.9099 39.6252 70.9375C38.9265 70.5959 38.2279 70.2543 37.508 69.9023C35.3675 68.9 35.3675 68.9 32.5002 68ZM60.5002 72C59.5102 72.33 58.5202 72.66 57.5002 73C57.1702 75.64 56.8402 78.28 56.5002 81C63.2655 79.2147 68.1548 76.5006 73.5002 72C68.4585 66.7595 66.2959 67.8074 60.5002 72Z" fill="white"/>
<path d="M54.5 42C57 43.5 57 43.5 58.5 46C59.291 50.021 59.1215 52.9641 57 56.5C53.4641 58.6215 50.521 58.791 46.5 58C44 56.5 44 56.5 42.5 54C41.709 49.979 41.8785 47.0359 44 43.5C47.5359 41.3785 50.479 41.209 54.5 42ZM48.5 47C48.17 48.65 47.84 50.3 47.5 52C49.975 52.495 49.975 52.495 52.5 53C52.83 51.35 53.16 49.7 53.5 48C51.85 47.67 50.2 47.34 48.5 47Z" fill="white"/>
</svg>
