<svg width="100" height="100" viewBox="0 0 100 100" fill="none" xmlns="http://www.w3.org/2000/svg">
<g clip-path="url(#clip0_24_961)">
<path d="M46.1877 -0.265625C48.0748 -0.257891 48.0748 -0.257891 50.0002 -0.25C51.2583 -0.255156 52.5164 -0.260312 53.8127 -0.265625C57.0002 0 57.0002 0 59.0002 2C59.1252 5.125 59.1252 5.125 59.0002 8C59.8806 7.9652 60.761 7.93039 61.6681 7.89453C62.8296 7.86746 63.991 7.84039 65.1877 7.8125C66.3362 7.7777 67.4848 7.74289 68.6681 7.70703C72.4448 8.03909 74.1182 8.54611 77.0002 11C79.5111 15.9269 80.3773 19.5525 80.3883 25.157C80.3936 25.8343 80.3989 26.5117 80.4043 27.2095C80.4174 29.4251 80.4088 31.6399 80.3986 33.8555C80.4006 35.4053 80.4035 36.9551 80.4073 38.505C80.4117 41.7419 80.4053 44.9786 80.3913 48.2156C80.3741 52.3618 80.3841 56.5074 80.402 60.6536C80.4128 63.8492 80.4094 67.0447 80.4016 70.2403C80.3996 71.7693 80.4021 73.2983 80.409 74.8273C80.4167 76.9623 80.405 79.0963 80.3883 81.2312C80.386 82.4447 80.3836 83.6583 80.3811 84.9086C79.963 88.3014 79.5467 89.7281 77.0002 92C74.6095 92.5079 74.6095 92.5079 71.7502 92.5176C70.6789 92.5302 69.6077 92.5428 68.5041 92.5558C67.3478 92.5477 66.1915 92.5396 65.0002 92.5312C63.8129 92.5351 62.6257 92.5389 61.4025 92.5428C58.8908 92.5456 56.379 92.5382 53.8673 92.5215C50.0151 92.5001 46.1648 92.5213 42.3127 92.5469C39.8752 92.5442 37.4376 92.5391 35.0002 92.5312C33.2657 92.5434 33.2657 92.5434 31.4962 92.5558C30.425 92.5432 29.3538 92.5306 28.2502 92.5176C27.3066 92.5144 26.363 92.5112 25.3908 92.5079C23.0002 92 23.0002 92 21.1963 90.3907C19.6036 87.2073 19.619 84.7894 19.612 81.2312C19.6067 80.5591 19.6015 79.887 19.596 79.1946C19.5829 76.9771 19.5916 74.7604 19.6017 72.543C19.5997 70.996 19.5968 69.4491 19.593 67.9022C19.5886 64.6599 19.595 61.4178 19.609 58.1755C19.6261 54.0329 19.6163 49.8909 19.5983 45.7483C19.5874 42.5525 19.591 39.3569 19.5987 36.1611C19.6007 34.6346 19.5983 33.1081 19.5913 31.5816C19.5836 29.4397 19.5953 27.2988 19.612 25.157C19.6144 23.941 19.6167 22.7251 19.6192 21.4723C20.1599 16.5435 21.3696 12.3884 25.2619 9.07422C28.617 7.758 31.2186 7.70359 34.8127 7.8125C36.5548 7.85311 36.5548 7.85311 38.3322 7.89453C39.2126 7.92934 40.093 7.96414 41.0002 8C40.9589 7.05125 40.9177 6.1025 40.8752 5.125C41.0496 0.764963 41.8651 0.0945861 46.1877 -0.265625ZM35.0002 55C34.6702 56.65 34.3402 58.3 34.0002 60C36.7596 62.7594 38.3925 62.2581 42.2502 62.2656C43.498 62.2682 44.7458 62.2708 46.0314 62.2734C47.3411 62.2657 48.6508 62.258 50.0002 62.25C51.9647 62.2616 51.9647 62.2616 53.9689 62.2734C55.8406 62.2696 55.8406 62.2696 57.7502 62.2656C59.4749 62.2622 59.4749 62.2622 61.2345 62.2588C64.1422 62.2834 64.1422 62.2834 66.0002 60C65.6702 58.35 65.3402 56.7 65.0002 55C55.1002 55 45.2002 55 35.0002 55ZM34.0002 73C34.3446 75.4727 34.3446 75.4727 35.0002 78C39.3345 80.1672 45.1769 79.185 49.9377 79.1875C51.1436 79.1997 52.3495 79.212 53.592 79.2246C55.3235 79.2275 55.3235 79.2275 57.09 79.2305C58.1508 79.2346 59.2116 79.2387 60.3046 79.2429C63.2233 79.1963 63.2233 79.1963 66.0002 77C65.6557 74.5273 65.6557 74.5273 65.0002 72C60.6658 69.8328 54.8234 70.815 50.0627 70.8125C48.8567 70.8003 47.6508 70.788 46.4084 70.7754C45.254 70.7735 44.0996 70.7715 42.9103 70.7695C41.8495 70.7654 40.7887 70.7613 39.6957 70.7571C36.777 70.8037 36.777 70.8037 34.0002 73Z" fill="white"/>
</g>
<defs>
<clipPath id="clip0_24_961">
<rect width="100" height="100" fill="white"/>
</clipPath>
</defs>
</svg>
