<svg width="101" height="100" viewBox="0 0 101 100" fill="none" xmlns="http://www.w3.org/2000/svg">
<path d="M42.4999 7.99999C46.5922 10.0833 48.7989 11.7617 50.4999 16C50.738 18.0664 50.738 18.0664 50.7235 20.2903C50.724 21.1283 50.7245 21.9663 50.725 22.8297C50.7141 24.1766 50.7141 24.1766 50.703 25.5508C50.7135 27.4655 50.7253 29.3802 50.7381 31.2949C50.7484 34.3036 50.7499 37.3114 50.7298 40.3201C50.715 43.2311 50.7376 46.1399 50.7655 49.0508C50.7501 49.9427 50.7348 50.8346 50.7189 51.7535C50.8083 57.5307 51.9596 60.4817 56.0789 64.5805C59.1547 67.6532 59.4665 70.593 59.8124 74.8125C59.5958 80.5837 58.4054 84.9596 54.4022 89.2461C47.8166 95.2534 43.6224 96.3721 34.7303 96.2734C28.6733 95.7607 25.3011 93.0571 21.1874 88.6875C17.2849 83.7624 16.262 79.1526 16.6249 72.9375C17.3444 67.2416 19.4469 64.0529 23.4999 60C23.7217 57.0604 23.8253 54.2079 23.8436 51.2656C23.8655 49.9594 23.8655 49.9594 23.8879 48.6269C23.9345 45.8346 23.9686 43.0425 23.9999 40.25C24.0411 36.5883 24.0949 32.9271 24.1561 29.2656C24.164 28.0091 24.164 28.0091 24.1721 26.7271C24.2754 20.6123 24.7874 15.9265 28.9999 11.1875C33.2877 7.43566 36.9551 7.31971 42.4999 7.99999ZM37.4999 19C36.2949 19.9841 36.2949 19.9841 36.3863 21.8577C36.3916 22.6484 36.3968 23.4392 36.4022 24.2539C36.4054 25.1079 36.4086 25.9619 36.412 26.8418C36.4203 27.7396 36.4287 28.6375 36.4374 29.5625C36.4419 30.4642 36.4464 31.3659 36.451 32.2949C36.4629 34.53 36.4793 36.765 36.4999 39C37.4899 39 38.4799 39 39.4999 39C39.4999 32.73 39.4999 26.46 39.4999 20C38.8399 19.67 38.1799 19.34 37.4999 19ZM36.4999 51C36.5089 51.7734 36.5179 52.5469 36.5272 53.3437C36.3178 60.6986 35.2298 63.9847 30.0428 69.1289C28.2779 71.2692 27.8982 72.4411 27.7499 75.1875C28.659 79.8089 29.6607 81.3044 33.4999 84C36.9052 85.2484 36.9052 85.2484 40.4999 85C44.7578 82.7702 44.7578 82.7702 47.4999 79C47.7886 76.0648 48.0046 73.8527 47.4999 71C45.2288 68.1451 45.2288 68.1451 42.4999 66C40.2303 62.5957 40.1344 60.8348 39.8749 56.8125C39.8001 55.7258 39.7253 54.6391 39.6483 53.5195C39.5993 52.6881 39.5503 51.8566 39.4999 51C38.5099 51 37.5199 51 36.4999 51Z" fill="white"/>
<path d="M85.5 63.9999C87.3125 65.3398 87.3125 65.3398 88.5 66.9999C88.9375 69.9999 88.9375 69.9999 88.5 72.9999C87.0625 74.8749 87.0625 74.8749 84.5 75.9999C79.7712 76.5466 75.5991 76.6698 71.5 73.9999C70.5 71.1249 70.5 71.1249 70.5 67.9999C73.4151 62.4613 79.9983 63.0676 85.5 63.9999Z" fill="white"/>
<path d="M85.5 38.9999C87.3125 40.3398 87.3125 40.3398 88.5 41.9999C88.9375 44.9999 88.9375 44.9999 88.5 47.9999C87.0625 49.8749 87.0625 49.8749 84.5 50.9999C79.7712 51.5466 75.5991 51.6698 71.5 48.9999C70.5 46.1249 70.5 46.1249 70.5 42.9999C73.4151 37.4613 79.9983 38.0676 85.5 38.9999Z" fill="white"/>
<path d="M85.5 13.9999C87.3125 15.3398 87.3125 15.3398 88.5 16.9999C88.9375 19.9999 88.9375 19.9999 88.5 22.9999C87.0625 24.8749 87.0625 24.8749 84.5 25.9999C79.7712 26.5466 75.5991 26.6698 71.5 23.9999C70.5 21.1249 70.5 21.1249 70.5 17.9999C73.4151 12.4613 79.9983 13.0676 85.5 13.9999Z" fill="white"/>
</svg>
