<svg width="78" height="100" viewBox="0 0 78 100" fill="none" xmlns="http://www.w3.org/2000/svg">
<g clip-path="url(#clip0_24_953)">
<path d="M14.9742 37.7253C16.1791 37.7158 17.3839 37.7062 18.6252 37.6964C20.5722 37.6978 20.5722 37.6978 22.5585 37.6992C23.9084 37.6953 25.2583 37.6909 26.6083 37.6862C29.4352 37.6787 32.262 37.679 35.089 37.6843C38.7049 37.6901 42.3204 37.6731 45.9362 37.6499C48.7236 37.6352 51.5108 37.6343 54.2981 37.6374C56.2773 37.6367 58.2564 37.6228 60.2356 37.6088C61.4435 37.615 62.6515 37.6212 63.8961 37.6276C64.9566 37.627 66.0171 37.6264 67.1097 37.6257C71.3583 38.1758 73.8649 39.8036 76.7861 42.8829C78.2302 45.4018 78.391 46.9804 78.4198 49.8728C78.4436 51.3196 78.4436 51.3196 78.468 52.7957C78.4682 53.8312 78.4684 54.8667 78.4686 55.9335C78.48 57.5387 78.48 57.5387 78.4917 59.1762C78.5025 61.4382 78.5053 63.7002 78.5008 65.9621C78.4999 69.4215 78.5415 72.8787 78.5858 76.3378C78.591 78.5364 78.5937 80.735 78.5936 82.9335C78.61 83.967 78.6264 85.0005 78.6433 86.0652C78.574 93.274 78.574 93.274 75.5253 97.1291C74.6919 97.7465 73.8585 98.3639 72.9999 99C72.6699 99.33 72.3399 99.66 71.9999 100C70.027 100.105 68.0504 100.139 66.0748 100.145C64.1723 100.155 64.1723 100.155 62.2314 100.165C60.8352 100.166 59.439 100.167 58.0428 100.168C56.6189 100.171 55.1951 100.174 53.7712 100.178C50.7809 100.184 47.7907 100.186 44.8004 100.185C40.9703 100.185 37.1403 100.199 33.3103 100.216C30.3669 100.227 27.4235 100.229 24.4801 100.229C23.0683 100.23 21.6565 100.234 20.2448 100.242C18.2676 100.252 16.2903 100.248 14.3131 100.243C12.6255 100.245 12.6255 100.245 10.9038 100.247C6.95843 99.9113 4.88857 99.0054 2.27696 96.0507C0.358894 91.4688 0.551946 87.1077 0.566269 82.1875C0.561027 81.141 0.555785 80.0945 0.550385 79.0163C0.543971 76.8074 0.545292 74.5985 0.553818 72.3896C0.562333 69.0117 0.533547 65.6355 0.501816 62.2578C0.500204 60.1093 0.500781 57.9609 0.503769 55.8125C0.492535 54.804 0.481301 53.7956 0.469727 52.7565C0.512741 48.4258 0.566459 45.7424 2.78087 41.9492C6.78102 38.4353 9.6634 37.7484 14.9742 37.7253ZM33.9999 60C32.4083 62.7744 32.4083 62.7744 31.9999 66C32.433 66.7218 32.8661 67.4437 33.3124 68.1875C35.5695 71.9493 35.4982 75.2513 35.6913 79.5742C35.7712 82.1794 35.7712 82.1794 37.9999 84C40.7822 83.5947 40.7822 83.5947 42.9999 82C43.2448 79.2559 43.3837 76.513 43.5233 73.7617C44.0538 70.6872 45.0764 69.3888 46.9999 67C46.8614 64.1618 46.4003 62.5605 44.7499 60.25C41.1294 57.6639 37.5639 57.1733 33.9999 60Z" fill="white"/>
<path d="M54.0705 2.60549C61.4824 7.96187 65.5392 15.0503 67.0001 24C67.1241 27.6727 67.0444 31.3237 67.0001 35C62.7101 35 58.4201 35 54.0001 35C53.8455 32.2156 53.8455 32.2156 53.6876 29.375C53.1298 22.967 52.2627 18.9995 47.3126 14.625C42.0986 12.0672 38.2309 12.3136 32.7501 14C28.9554 16.7598 27.3812 19.546 26.0001 24C25.4217 27.6945 25.1874 31.2544 25.0001 35C20.7101 35 16.4201 35 12.0001 35C11.613 24.9349 12.4014 16.0651 19.0001 8.00002C28.0206 -1.15243 42.4194 -3.61573 54.0705 2.60549Z" fill="white"/>
</g>
<defs>
<clipPath id="clip0_24_953">
<rect width="78" height="100" fill="white"/>
</clipPath>
</defs>
</svg>
