<svg width="101" height="100" viewBox="0 0 101 100" fill="none" xmlns="http://www.w3.org/2000/svg">
<path d="M42.5001 7.99999C46.5924 10.0833 48.7992 11.7617 50.5001 16C50.7382 18.0664 50.7382 18.0664 50.7237 20.2903C50.7242 21.1283 50.7247 21.9663 50.7253 22.8297C50.7144 24.1766 50.7144 24.1766 50.7032 25.5508C50.7138 27.4655 50.7255 29.3802 50.7384 31.2949C50.7487 34.3036 50.7501 37.3114 50.7301 40.3201C50.7153 43.2311 50.7378 46.1399 50.7657 49.0508C50.7504 49.9427 50.735 50.8346 50.7192 51.7535C50.8086 57.5307 51.9598 60.4817 56.0791 64.5805C59.155 67.6532 59.4667 70.593 59.8126 74.8125C59.5961 80.5837 58.4057 84.9596 54.4025 89.2461C47.8168 95.2534 43.6227 96.3721 34.7306 96.2734C28.6736 95.7607 25.3014 93.0571 21.1876 88.6875C17.2851 83.7624 16.2622 79.1526 16.6251 72.9375C17.3447 67.2416 19.4472 64.0529 23.5001 60C23.722 57.0604 23.8255 54.2079 23.8439 51.2656C23.8658 49.9594 23.8658 49.9594 23.8882 48.6269C23.9348 45.8346 23.9689 43.0425 24.0001 40.25C24.0414 36.5883 24.0951 32.9271 24.1564 29.2656C24.1643 28.0091 24.1643 28.0091 24.1723 26.7271C24.2757 20.6123 24.7877 15.9265 29.0001 11.1875C33.2879 7.43566 36.9553 7.31971 42.5001 7.99999ZM37.5001 19C36.2951 19.9841 36.2951 19.9841 36.3866 21.8577C36.3918 22.6484 36.3971 23.4392 36.4024 24.2539C36.4057 25.1079 36.4089 25.9619 36.4122 26.8418C36.4206 27.7396 36.429 28.6375 36.4376 29.5625C36.4421 30.4642 36.4466 31.3659 36.4513 32.2949C36.4631 34.53 36.4796 36.765 36.5001 39C37.4901 39 38.4801 39 39.5001 39C39.5001 32.73 39.5001 26.46 39.5001 20C38.8401 19.67 38.1801 19.34 37.5001 19ZM36.5001 51C36.5091 51.7734 36.5182 52.5469 36.5274 53.3437C36.3181 60.6986 35.23 63.9847 30.0431 69.1289C28.2781 71.2692 27.8984 72.4411 27.7501 75.1875C28.6592 79.8089 29.661 81.3044 33.5001 84C36.9054 85.2484 36.9054 85.2484 40.5001 85C44.7581 82.7702 44.7581 82.7702 47.5001 79C47.7888 76.0648 48.0048 73.8527 47.5001 71C45.229 68.1451 45.229 68.1451 42.5001 66C40.2306 62.5957 40.1346 60.8348 39.8751 56.8125C39.8003 55.7258 39.7256 54.6391 39.6485 53.5195C39.5996 52.6881 39.5506 51.8566 39.5001 51C38.5101 51 37.5201 51 36.5001 51Z" fill="white"/>
<path d="M85.5 63.9999C87.3125 65.3398 87.3125 65.3398 88.5 66.9999C88.9375 69.9999 88.9375 69.9999 88.5 72.9999C87.0625 74.8749 87.0625 74.8749 84.5 75.9999C79.7712 76.5466 75.5991 76.6698 71.5 73.9999C70.5 71.1249 70.5 71.1249 70.5 67.9999C73.4151 62.4613 79.9983 63.0676 85.5 63.9999Z" fill="white"/>
<path d="M85.5 38.9999C87.3125 40.3398 87.3125 40.3398 88.5 41.9999C88.9375 44.9999 88.9375 44.9999 88.5 47.9999C87.0625 49.8749 87.0625 49.8749 84.5 50.9999C79.7712 51.5466 75.5991 51.6698 71.5 48.9999C70.5 46.1249 70.5 46.1249 70.5 42.9999C73.4151 37.4613 79.9983 38.0676 85.5 38.9999Z" fill="white"/>
<path d="M85.5 13.9999C87.3125 15.3398 87.3125 15.3398 88.5 16.9999C88.9375 19.9999 88.9375 19.9999 88.5 22.9999C87.0625 24.8749 87.0625 24.8749 84.5 25.9999C79.7712 26.5466 75.5991 26.6698 71.5 23.9999C70.5 21.1249 70.5 21.1249 70.5 17.9999C73.4151 12.4613 79.9983 13.0676 85.5 13.9999Z" fill="white"/>
</svg>
