<svg width="78" height="100" viewBox="0 0 78 100" fill="none" xmlns="http://www.w3.org/2000/svg">
<g clip-path="url(#clip0_24_935)">
<path d="M14.9745 37.7253C16.1793 37.7158 17.3841 37.7062 18.6255 37.6964C20.5724 37.6978 20.5724 37.6978 22.5587 37.6992C23.9086 37.6953 25.2586 37.6909 26.6085 37.6862C29.4355 37.6787 32.2623 37.679 35.0892 37.6843C38.7052 37.6901 42.3206 37.6731 45.9365 37.6499C48.7238 37.6352 51.511 37.6343 54.2984 37.6374C56.2775 37.6367 58.2567 37.6228 60.2358 37.6088C61.4438 37.615 62.6518 37.6212 63.8963 37.6276C64.9568 37.627 66.0173 37.6264 67.11 37.6257C71.3586 38.1758 73.8651 39.8036 76.7864 42.8829C78.2305 45.4018 78.3913 46.9804 78.42 49.8728C78.4439 51.3196 78.4439 51.3196 78.4682 52.7957C78.4684 53.8312 78.4687 54.8667 78.4689 55.9335C78.4803 57.5387 78.4803 57.5387 78.4919 59.1762C78.5027 61.4382 78.5056 63.7002 78.5011 65.9621C78.5001 69.4215 78.5417 72.8787 78.586 76.3378C78.5913 78.5364 78.5939 80.735 78.5939 82.9335C78.6103 83.967 78.6266 85.0005 78.6435 86.0652C78.5742 93.274 78.5742 93.274 75.5255 97.1291C74.6921 97.7465 73.8587 98.3639 73.0001 99C72.6701 99.33 72.3401 99.66 72.0001 100C70.0273 100.105 68.0507 100.139 66.0751 100.145C64.1725 100.155 64.1725 100.155 62.2316 100.165C60.8354 100.166 59.4393 100.167 58.0431 100.168C56.6192 100.171 55.1953 100.174 53.7714 100.178C50.7812 100.184 47.7909 100.186 44.8006 100.185C40.9705 100.185 37.1406 100.199 33.3105 100.216C30.3671 100.227 27.4237 100.229 24.4803 100.229C23.0685 100.23 21.6568 100.234 20.245 100.242C18.2678 100.252 16.2906 100.248 14.3133 100.243C12.6258 100.245 12.6258 100.245 10.9041 100.247C6.95867 99.9113 4.88881 99.0054 2.27721 96.0507C0.359139 91.4688 0.55219 87.1077 0.566513 82.1875C0.561271 81.141 0.556029 80.0945 0.550629 79.0163C0.544215 76.8074 0.545536 74.5985 0.554062 72.3896C0.562577 69.0117 0.533791 65.6355 0.50206 62.2578C0.500448 60.1093 0.501025 57.9609 0.504013 55.8125C0.492779 54.804 0.481545 53.7956 0.469971 52.7565C0.512985 48.4258 0.566703 45.7424 2.78111 41.9492C6.78127 38.4353 9.66365 37.7484 14.9745 37.7253ZM34.0001 60C32.4086 62.7744 32.4086 62.7744 32.0001 66C32.4332 66.7218 32.8664 67.4437 33.3126 68.1875C35.5697 71.9493 35.4985 75.2513 35.6915 79.5742C35.7714 82.1794 35.7714 82.1794 38.0001 84C40.7825 83.5947 40.7825 83.5947 43.0001 82C43.245 79.2559 43.384 76.513 43.5235 73.7617C44.0541 70.6872 45.0766 69.3888 47.0001 67C46.8617 64.1618 46.4005 62.5605 44.7501 60.25C41.1296 57.6639 37.5642 57.1733 34.0001 60Z" fill="white"/>
<path d="M54.0702 2.60549C61.4821 7.96187 65.539 15.0503 66.9999 24C67.1238 27.6727 67.0442 31.3237 66.9999 35C62.7099 35 58.4199 35 53.9999 35C53.8452 32.2156 53.8452 32.2156 53.6874 29.375C53.1295 22.967 52.2625 18.9995 47.3124 14.625C42.0984 12.0672 38.2306 12.3136 32.7499 14C28.9552 16.7598 27.3809 19.546 25.9999 24C25.4214 27.6945 25.1872 31.2544 24.9999 35C20.7099 35 16.4199 35 11.9999 35C11.6128 24.9349 12.4012 16.0651 18.9999 8.00002C28.0203 -1.15243 42.4192 -3.61573 54.0702 2.60549Z" fill="white"/>
</g>
<defs>
<clipPath id="clip0_24_935">
<rect width="78" height="100" fill="white"/>
</clipPath>
</defs>
</svg>
