<svg width="100" height="100" viewBox="0 0 100 100" fill="none" xmlns="http://www.w3.org/2000/svg">
<g clip-path="url(#clip0_24_943)">
<path d="M46.1874 -0.265625C48.0746 -0.257891 48.0746 -0.257891 49.9999 -0.25C51.258 -0.255156 52.5162 -0.260312 53.8124 -0.265625C56.9999 0 56.9999 0 58.9999 2C59.1249 5.125 59.1249 5.125 58.9999 8C59.8803 7.9652 60.7608 7.93039 61.6679 7.89453C62.8293 7.86746 63.9908 7.84039 65.1874 7.8125C66.336 7.7777 67.4845 7.74289 68.6679 7.70703C72.4445 8.03909 74.118 8.54611 76.9999 11C79.5109 15.9269 80.3771 19.5525 80.3881 25.157C80.3934 25.8343 80.3986 26.5117 80.404 27.2095C80.4171 29.4251 80.4085 31.6399 80.3983 33.8555C80.4004 35.4053 80.4033 36.9551 80.407 38.505C80.4115 41.7419 80.4051 44.9786 80.391 48.2156C80.3739 52.3618 80.3838 56.5074 80.4017 60.6536C80.4126 63.8492 80.4091 67.0447 80.4014 70.2403C80.3994 71.7693 80.4018 73.2983 80.4088 74.8273C80.4164 76.9623 80.4048 79.0963 80.3881 81.2312C80.3857 82.4447 80.3833 83.6583 80.3809 84.9086C79.9628 88.3014 79.5465 89.7281 76.9999 92C74.6093 92.5079 74.6093 92.5079 71.7499 92.5176C70.6787 92.5302 69.6075 92.5428 68.5038 92.5558C67.3475 92.5477 66.1912 92.5396 64.9999 92.5312C63.8127 92.5351 62.6255 92.5389 61.4023 92.5428C58.8905 92.5456 56.3788 92.5382 53.8671 92.5215C50.0149 92.5001 46.1646 92.5213 42.3124 92.5469C39.8749 92.5442 37.4374 92.5391 34.9999 92.5312C33.2655 92.5434 33.2655 92.5434 31.496 92.5558C30.4248 92.5432 29.3536 92.5306 28.2499 92.5176C27.3063 92.5144 26.3627 92.5112 25.3905 92.5079C22.9999 92 22.9999 92 21.196 90.3907C19.6033 87.2073 19.6187 84.7894 19.6117 81.2312C19.6065 80.5591 19.6012 79.887 19.5958 79.1946C19.5826 76.9771 19.5913 74.7604 19.6015 72.543C19.5995 70.996 19.5965 69.4491 19.5928 67.9022C19.5884 64.6599 19.5948 61.4178 19.6088 58.1755C19.6258 54.0329 19.6161 49.8909 19.5981 45.7483C19.5872 42.5525 19.5907 39.3569 19.5985 36.1611C19.6005 34.6346 19.598 33.1081 19.591 31.5816C19.5833 29.4397 19.5951 27.2988 19.6117 25.157C19.6141 23.941 19.6165 22.7251 19.619 21.4723C20.1597 16.5435 21.3693 12.3884 25.2616 9.07422C28.6168 7.758 31.2183 7.70359 34.8124 7.8125C36.5546 7.85311 36.5546 7.85311 38.3319 7.89453C39.2124 7.92934 40.0928 7.96414 40.9999 8C40.9587 7.05125 40.9174 6.1025 40.8749 5.125C41.0493 0.764963 41.8649 0.0945861 46.1874 -0.265625ZM34.9999 55C34.6699 56.65 34.3399 58.3 33.9999 60C36.7594 62.7594 38.3923 62.2581 42.2499 62.2656C43.4977 62.2682 44.7455 62.2708 46.0312 62.2734C47.3408 62.2657 48.6505 62.258 49.9999 62.25C51.9644 62.2616 51.9644 62.2616 53.9687 62.2734C55.8404 62.2696 55.8404 62.2696 57.7499 62.2656C59.4747 62.2622 59.4747 62.2622 61.2343 62.2588C64.1419 62.2834 64.1419 62.2834 65.9999 60C65.6699 58.35 65.3399 56.7 64.9999 55C55.0999 55 45.1999 55 34.9999 55ZM33.9999 73C34.3444 75.4727 34.3444 75.4727 34.9999 78C39.3343 80.1672 45.1766 79.185 49.9374 79.1875C51.1433 79.1997 52.3492 79.212 53.5917 79.2246C55.3232 79.2275 55.3232 79.2275 57.0898 79.2305C58.1506 79.2346 59.2114 79.2387 60.3044 79.2429C63.2231 79.1963 63.2231 79.1963 65.9999 77C65.6555 74.5273 65.6555 74.5273 64.9999 72C60.6656 69.8328 54.8232 70.815 50.0624 70.8125C48.8565 70.8003 47.6506 70.788 46.4081 70.7754C45.2538 70.7735 44.0994 70.7715 42.9101 70.7695C41.8492 70.7654 40.7884 70.7613 39.6955 70.7571C36.7767 70.8037 36.7767 70.8037 33.9999 73Z" fill="white"/>
</g>
<defs>
<clipPath id="clip0_24_943">
<rect width="100" height="100" fill="white"/>
</clipPath>
</defs>
</svg>
