<svg width="42" height="38" viewBox="0 0 42 38" fill="none" xmlns="http://www.w3.org/2000/svg">
<path d="M3.15 32.55C1.41031 32.55 0 31.1397 0 29.4V19.6452C0 17.2581 1.3491 15.076 3.48453 14.0093L4.20056 13.6516L6.62602 3.24654C7.06923 1.34523 8.76403 0 10.7163 0H31.389C33.3559 0 35.0594 1.36498 35.488 3.28457L37.8033 13.6516L38.5176 14.0087C40.6518 15.0759 42 17.2573 42 19.6435V29.4C42 31.1397 40.5897 32.55 38.85 32.55H36.7533V33.6C36.7533 35.9196 34.8712 37.8 32.5517 37.8C30.232 37.8 28.35 35.9196 28.35 33.6V32.55H13.65V33.6003C13.65 35.9198 11.7698 37.8 9.45031 37.8C7.13086 37.8 5.25056 35.9198 5.25056 33.6003V32.55H3.15Z" stroke="#3C879C" stroke-width="5.20918" stroke-linejoin="round"/>
<path d="M10.5 16.8001H31.5L29.7654 8.9945C29.5519 8.03375 28.6998 7.3501 27.7155 7.3501H14.2845C13.3002 7.3501 12.4481 8.03375 12.2346 8.9945L10.5 16.8001Z" stroke="#3C879C" stroke-width="5.20918" stroke-linejoin="round"/>
</svg>
