<svg width="111" height="111" viewBox="0 0 111 111" fill="none" xmlns="http://www.w3.org/2000/svg">
<g clip-path="url(#clip0_59_2)">
<path d="M79.0025 28.6498C79.596 32.0335 79.6426 34.828 78.8983 38.1658C78.7972 38.7212 78.6962 39.2765 78.592 39.8488C77.5041 43.8443 75.8034 45.6593 72.5038 48.116C69.2765 50.6886 66.7542 53.2098 65.8082 57.3393C65.2175 63.4601 65.6678 69.6065 66.0544 75.7383C66.1987 78.5034 66.3279 81.2673 66.4312 84.0338C66.4981 85.7452 66.5895 87.4561 66.7099 89.1651C67.0349 96.2076 64.5647 100.254 60.6183 105.834C58.5053 107.209 56.7101 107.772 54.1609 107.676C49.7075 106.048 46.4268 101.594 43.3482 98.0982C45.1591 96.2873 46.9699 94.4764 48.8357 92.6107C47.007 90.782 45.1783 88.9533 43.2943 87.0693C45.1051 85.2584 46.916 83.4475 48.7818 81.5818C46.9531 79.7531 45.1244 77.9244 43.2403 76.0403C45.0512 74.2295 46.8621 72.4186 48.7278 70.5528C47.8145 69.8432 46.9012 69.1336 45.9601 68.4025C43.9607 66.4467 43.2043 65.6071 43.1195 62.7838C43.2023 61.9724 43.285 61.1611 43.3703 60.3251C43.5871 56.7915 43.4376 55.4942 41.299 52.5777C40.5161 51.7392 39.7188 50.9141 38.9088 50.1018C33.9756 45.1461 31.3513 40.3174 30.74 33.2087C30.7879 31.3898 31.0271 29.7783 31.4254 28.0079C31.5392 27.4398 31.653 26.8716 31.7702 26.2863C33.4679 20.3239 37.9875 15.6266 42.9275 12.0725C48.4155 9.24556 53.9145 7.97147 60.0089 9.3989C60.5781 9.51826 61.1474 9.63762 61.7339 9.76059C70.4457 12.3192 76.7092 20.1687 79.0025 28.6498ZM51.1948 13.4075C44.993 14.3944 41.3646 18.4223 37.467 23.0745C34.5263 27.9121 34.9713 33.6054 35.8909 39.0584C37.648 44.4002 42.2441 48.7946 46.977 51.7008C52.0278 53.7083 58.1969 53.4178 63.2835 51.7891C67.8949 49.3319 72.5421 44.8316 74.4609 39.9018C75.7647 34.5297 75.4153 28.1666 72.7596 23.2471C66.2529 15.2663 61.2581 12.7744 51.1948 13.4075ZM61.3383 55.7258C59.6847 55.8974 59.6847 55.8974 57.7912 56.2943C53.8622 56.9203 51.2902 56.4373 47.5494 55.1069C47.4621 56.2552 47.3761 57.4037 47.2906 58.5521C47.2185 59.5114 47.2185 59.5114 47.145 60.4901C46.8289 63.522 46.8289 63.522 48.3783 66.0276C48.9439 66.5678 49.5095 67.108 50.0923 67.6645C50.6579 68.2103 51.2236 68.7562 51.8064 69.3185C52.2463 69.733 52.6862 70.1474 53.1394 70.5744C51.3285 72.3853 49.5177 74.1962 47.6519 76.0619C49.4806 77.8906 51.3092 79.7192 53.1933 81.6033C51.3825 83.4142 49.5716 85.2251 47.7058 87.0908C49.5345 88.9195 51.3632 90.7482 53.2473 92.6323C51.4364 94.4431 49.6255 96.254 47.7598 98.1198C49.4056 99.7656 51.0514 101.411 52.747 103.107C53.8371 102.748 54.9272 102.39 56.0503 102.02C55.9916 90.0098 55.9329 77.9993 55.8724 65.6249C56.5985 65.2645 57.3246 64.9041 58.0728 64.5328C59.5437 67.8171 59.3473 71.1747 59.333 74.6844C59.3346 75.3407 59.3363 75.997 59.338 76.6731C59.342 78.7632 59.3384 80.853 59.3346 82.943C59.336 84.3625 59.3379 85.7821 59.3403 87.2016C59.3452 90.6761 59.3431 94.1505 59.3374 97.6249C61.6738 96.7759 61.6738 96.7759 62.2093 94.7685C62.7673 91.1719 62.7547 87.6548 62.726 84.0151C62.7232 83.2406 62.7205 82.4661 62.7177 81.6681C62.7105 80.0376 62.7005 78.4071 62.6879 76.7765C62.6697 74.2715 62.6633 71.7667 62.6581 69.2618C62.6497 67.6771 62.6405 66.0924 62.6306 64.5077C62.6291 63.7552 62.6277 63.0028 62.6262 62.2275C62.6193 61.5353 62.6125 60.843 62.6054 60.1297C62.6015 59.5185 62.5977 58.9073 62.5937 58.2776C62.5919 56.7469 62.5919 56.7469 61.3383 55.7258Z" fill="#75CEC9"/>
<path d="M62.5755 22.4175C64.0646 24.8656 63.9497 26.5274 63.4146 29.2671C62.2434 31.2125 60.9699 32.4859 59.0246 33.6571C56.2849 34.1922 54.623 34.3071 52.175 32.818C49.846 30.799 49.1389 29.4996 48.5121 26.4371C49.109 23.3806 49.8035 22.088 52.1127 20.0917C56.1898 17.637 59.6979 19.0983 62.5755 22.4175ZM55.662 22.612C53.9234 24.1659 53.9234 24.1659 52.3695 25.9045C52.2517 27.2618 52.2517 27.2618 53.9687 28.7384C55.4453 30.4555 55.4453 30.4555 56.8026 30.3377C58.5412 28.7838 58.5412 28.7838 60.0951 27.0452C60.2129 25.6879 60.2129 25.6879 58.4959 24.2112C57.0193 22.4942 57.0193 22.4942 55.662 22.612Z" fill="#75CEC9"/>
</g>
<defs>
<clipPath id="clip0_59_2">
<rect width="78.3677" height="77.605" fill="white" transform="translate(55) rotate(45)"/>
</clipPath>
</defs>
</svg>
