<svg width="78" height="100" viewBox="0 0 78 100" fill="none" xmlns="http://www.w3.org/2000/svg">
<g clip-path="url(#clip0_24_880)">
<path d="M14.9743 37.7253C16.1792 37.7158 17.384 37.7062 18.6253 37.6964C20.5723 37.6978 20.5723 37.6978 22.5586 37.6992C23.9085 37.6953 25.2585 37.6909 26.6084 37.6862C29.4353 37.6787 32.2622 37.679 35.0891 37.6843C38.705 37.6901 42.3205 37.6731 45.9363 37.6499C48.7237 37.6352 51.5109 37.6343 54.2982 37.6374C56.2774 37.6367 58.2566 37.6228 60.2357 37.6088C61.4437 37.615 62.6516 37.6212 63.8962 37.6276C64.9567 37.627 66.0172 37.6264 67.1098 37.6257C71.3584 38.1758 73.865 39.8036 76.7862 42.8829C78.2304 45.4018 78.3911 46.9804 78.4199 49.8728C78.4438 51.3196 78.4438 51.3196 78.4681 52.7957C78.4683 53.8312 78.4685 54.8667 78.4687 55.9335C78.4802 57.5387 78.4802 57.5387 78.4918 59.1762C78.5026 61.4382 78.5055 63.7002 78.501 65.9621C78.5 69.4215 78.5416 72.8787 78.5859 76.3378C78.5911 78.5364 78.5938 80.735 78.5937 82.9335C78.6101 83.967 78.6265 85.0005 78.6434 86.0652C78.5741 93.274 78.5741 93.274 75.5254 97.1291C74.692 97.7465 73.8586 98.3639 73 99C72.67 99.33 72.34 99.66 72 100C70.0271 100.105 68.0505 100.139 66.0749 100.145C64.1724 100.155 64.1724 100.155 62.2315 100.165C60.8353 100.166 59.4391 100.167 58.043 100.168C56.6191 100.171 55.1952 100.174 53.7713 100.178C50.781 100.184 47.7908 100.186 44.8005 100.185C40.9704 100.185 37.1405 100.199 33.3104 100.216C30.367 100.227 27.4236 100.229 24.4802 100.229C23.0684 100.23 21.6566 100.234 20.2449 100.242C18.2677 100.252 16.2904 100.248 14.3132 100.243C12.6256 100.245 12.6256 100.245 10.904 100.247C6.95855 99.9113 4.88869 99.0054 2.27708 96.0507C0.359017 91.4688 0.552068 87.1077 0.566391 82.1875C0.561149 81.141 0.555907 80.0945 0.550507 79.0163C0.544093 76.8074 0.545414 74.5985 0.55394 72.3896C0.562455 69.0117 0.533669 65.6355 0.501938 62.2578C0.500326 60.1093 0.500903 57.9609 0.503891 55.8125C0.492657 54.804 0.481423 53.7956 0.469849 52.7565C0.512863 48.4258 0.566581 45.7424 2.78099 41.9492C6.78114 38.4353 9.66353 37.7484 14.9743 37.7253ZM34 60C32.4085 62.7744 32.4085 62.7744 32 66C32.4331 66.7218 32.8662 67.4437 33.3125 68.1875C35.5696 71.9493 35.4984 75.2513 35.6914 79.5742C35.7713 82.1794 35.7713 82.1794 38 84C40.7824 83.5947 40.7824 83.5947 43 82C43.2449 79.2559 43.3838 76.513 43.5234 73.7617C44.054 70.6872 45.0765 69.3888 47 67C46.8615 64.1618 46.4004 62.5605 44.75 60.25C41.1295 57.6639 37.5641 57.1733 34 60Z" fill="#81E6DF"/>
<path d="M54.0703 2.60549C61.4822 7.96187 65.5391 15.0503 67 24C67.1239 27.6727 67.0443 31.3237 67 35C62.71 35 58.42 35 54 35C53.8453 32.2156 53.8453 32.2156 53.6875 29.375C53.1297 22.967 52.2626 18.9995 47.3125 14.625C42.0985 12.0672 38.2308 12.3136 32.75 14C28.9553 16.7598 27.3811 19.546 26 24C25.4215 27.6945 25.1873 31.2544 25 35C20.71 35 16.42 35 12 35C11.6129 24.9349 12.4013 16.0651 19 8.00002C28.0205 -1.15243 42.4193 -3.61573 54.0703 2.60549Z" fill="#81E6DF"/>
</g>
<defs>
<clipPath id="clip0_24_880">
<rect width="78" height="100" fill="white"/>
</clipPath>
</defs>
</svg>
