<svg width="100" height="100" viewBox="0 0 100 100" fill="none" xmlns="http://www.w3.org/2000/svg">
<g clip-path="url(#clip0_24_888)">
<path d="M46.1875 -0.265625C48.0747 -0.257891 48.0747 -0.257891 50 -0.25C51.2582 -0.255156 52.5163 -0.260312 53.8125 -0.265625C57 0 57 0 59 2C59.125 5.125 59.125 5.125 59 8C59.8805 7.9652 60.7609 7.93039 61.668 7.89453C62.8294 7.86746 63.9909 7.84039 65.1875 7.8125C66.3361 7.7777 67.4846 7.74289 68.668 7.70703C72.4447 8.03909 74.1181 8.54611 77 11C79.511 15.9269 80.3772 19.5525 80.3882 25.157C80.3935 25.8343 80.3987 26.5117 80.4041 27.2095C80.4172 29.4251 80.4087 31.6399 80.3985 33.8555C80.4005 35.4053 80.4034 36.9551 80.4072 38.505C80.4116 41.7419 80.4052 44.9786 80.3911 48.2156C80.374 52.3618 80.3839 56.5074 80.4019 60.6536C80.4127 63.8492 80.4093 67.0447 80.4015 70.2403C80.3995 71.7693 80.4019 73.2983 80.4089 74.8273C80.4165 76.9623 80.4049 79.0963 80.3882 81.2312C80.3858 82.4447 80.3834 83.6583 80.381 84.9086C79.9629 88.3014 79.5466 89.7281 77 92C74.6094 92.5079 74.6094 92.5079 71.75 92.5176C70.6788 92.5302 69.6076 92.5428 68.5039 92.5558C67.3477 92.5477 66.1914 92.5396 65 92.5312C63.8128 92.5351 62.6256 92.5389 61.4024 92.5428C58.8907 92.5456 56.3789 92.5382 53.8672 92.5215C50.015 92.5001 46.1647 92.5213 42.3125 92.5469C39.875 92.5442 37.4375 92.5391 35 92.5312C33.2656 92.5434 33.2656 92.5434 31.4961 92.5558C30.4249 92.5432 29.3537 92.5306 28.25 92.5176C27.3064 92.5144 26.3628 92.5112 25.3907 92.5079C23 92 23 92 21.1962 90.3907C19.6034 87.2073 19.6188 84.7894 19.6118 81.2312C19.6066 80.5591 19.6013 79.887 19.5959 79.1946C19.5827 76.9771 19.5915 74.7604 19.6016 72.543C19.5996 70.996 19.5967 69.4491 19.5929 67.9022C19.5885 64.6599 19.5949 61.4178 19.6089 58.1755C19.626 54.0329 19.6162 49.8909 19.5982 45.7483C19.5873 42.5525 19.5908 39.3569 19.5986 36.1611C19.6006 34.6346 19.5982 33.1081 19.5911 31.5816C19.5835 29.4397 19.5952 27.2988 19.6118 25.157C19.6142 23.941 19.6166 22.7251 19.6191 21.4723C20.1598 16.5435 21.3695 12.3884 25.2618 9.07422C28.6169 7.758 31.2185 7.70359 34.8125 7.8125C36.5547 7.85311 36.5547 7.85311 38.3321 7.89453C39.2125 7.92934 40.0929 7.96414 41 8C40.9588 7.05125 40.9175 6.1025 40.875 5.125C41.0494 0.764963 41.865 0.0945861 46.1875 -0.265625ZM35 55C34.67 56.65 34.34 58.3 34 60C36.7595 62.7594 38.3924 62.2581 42.25 62.2656C43.4978 62.2682 44.7457 62.2708 46.0313 62.2734C47.341 62.2657 48.6507 62.258 50 62.25C51.9646 62.2616 51.9646 62.2616 53.9688 62.2734C55.8405 62.2696 55.8405 62.2696 57.75 62.2656C59.4748 62.2622 59.4748 62.2622 61.2344 62.2588C64.142 62.2834 64.142 62.2834 66 60C65.67 58.35 65.34 56.7 65 55C55.1 55 45.2 55 35 55ZM34 73C34.3445 75.4727 34.3445 75.4727 35 78C39.3344 80.1672 45.1767 79.185 49.9375 79.1875C51.1434 79.1997 52.3494 79.212 53.5918 79.2246C55.3234 79.2275 55.3234 79.2275 57.0899 79.2305C58.1507 79.2346 59.2115 79.2387 60.3045 79.2429C63.2232 79.1963 63.2232 79.1963 66 77C65.6556 74.5273 65.6556 74.5273 65 72C60.6657 69.8328 54.8233 70.815 50.0625 70.8125C48.8566 70.8003 47.6507 70.788 46.4082 70.7754C45.2539 70.7735 44.0995 70.7715 42.9102 70.7695C41.8494 70.7654 40.7886 70.7613 39.6956 70.7571C36.7769 70.8037 36.7769 70.8037 34 73Z" fill="white"/>
</g>
<defs>
<clipPath id="clip0_24_888">
<rect width="100" height="100" fill="white"/>
</clipPath>
</defs>
</svg>
