<svg width="100" height="100" viewBox="0 0 100 100" fill="none" xmlns="http://www.w3.org/2000/svg">
<path d="M4 20C45.0184 20 45.0184 20 55.0977 29.0596C66.3896 47.29 60.8953 76.841 60 96C41.52 96 23.04 96 4 96C4 70.92 4 45.84 4 20ZM38 26C38 31.28 38 36.56 38 42C43.28 42 48.56 42 54 42C49.3165 36.3557 44.3792 30.9942 39 26C38.67 26 38.34 26 38 26ZM16 52C16 53.32 16 54.64 16 56C26.56 56 37.12 56 48 56C48 54.68 48 53.36 48 52C37.44 52 26.88 52 16 52ZM16 64C16 65.32 16 66.64 16 68C23.92 68 31.84 68 40 68C40 66.68 40 65.36 40 64C32.08 64 24.16 64 16 64ZM16 76C16 77.32 16 78.64 16 80C26.56 80 37.12 80 48 80C48 78.68 48 77.36 48 76C37.44 76 26.88 76 16 76Z" fill="white"/>
<path d="M40 4.00005C73.4539 0.44578 73.4539 0.44578 85.6895 8.3145C93.0651 14.61 95.8588 20.9659 96.7891 30.4434C97.8895 46.9728 97.0054 63.4896 96 80.0001C85.44 80.0001 74.88 80.0001 64 80.0001C64 74.7201 64 69.44 64 64C70.6 64 77.2 64 84 64C84 62.68 84 61.3601 84 60C77.4 60 70.8 60 64 60C64 57.3601 64 54.7201 64 52C67.96 52 71.92 52 76 52C76 50.68 76 49.3601 76 48C72.04 48 68.08 48 64 48C64 45.3601 64 42.7201 64 40C70.6 40 77.2 40 84 40C84 38.68 84 37.3601 84 36C83.3777 36.1351 82.7554 36.2701 82.1143 36.4092C73.6942 38.0314 64.7031 39.5887 56.9004 35.294C53.8566 32.9975 51.1867 30.5795 48.5 27.875C47.6405 27.0278 46.781 26.1806 45.8955 25.3077C41.3328 20.2362 39.4912 16.7239 39.4688 9.82036C39.6032 7.87684 39.7652 5.93402 40 4.00005ZM74 10.0001C74 15.2801 74 20.56 74 26C79.28 26 84.56 26 90 26C85.3165 20.3558 80.3792 14.9942 75 10.0001C74.67 10.0001 74.34 10.0001 74 10.0001Z" fill="white"/>
</svg>
