<svg width="101" height="100" viewBox="0 0 101 100" fill="none" xmlns="http://www.w3.org/2000/svg">
<path d="M76.1875 10.75C86.2562 18.0009 93.9151 27.5428 96.5 40C97.8942 56.6629 95.3743 68.9072 84.8281 82.0898C78.4113 89.2333 68.0883 95.3651 58.3845 96.177C41.3219 96.6389 29.3962 94.1966 16.375 82.5C6.11539 71.8908 4.01619 59.1242 4.22267 45.0078C4.68249 32.6958 11.313 22.3417 20.0156 13.9258C36.3903 1.23288 58.6112 -0.116428 76.1875 10.75ZM49.5 19C49.4484 19.8398 49.4484 19.8398 49.3958 20.6965C49.2258 23.2375 49.0196 25.7743 48.8125 28.3125C48.759 29.1936 48.7055 30.0746 48.6504 30.9824C48.0856 37.4406 48.0856 37.4406 45.2305 40.168C39.5153 41.9095 35.2219 39.0558 30.1875 36.4375C29.5423 36.1081 28.8972 35.7788 28.2324 35.4394C26.6522 34.6318 25.0757 33.8166 23.5 33C23.5 33.99 23.5 34.98 23.5 36C26.6562 38.1154 29.8463 40.0482 33.168 41.8887C38.0703 44.8721 38.0703 44.8721 39.2324 47.9224C39.4669 50.2847 39.3391 51.7749 38.5 54C36.3185 56.3963 33.7964 57.8978 31 59.5C30.2846 59.9409 29.5692 60.3817 28.832 60.8359C27.0703 61.9165 25.2871 62.9618 23.5 64C23.83 64.99 24.16 65.98 24.5 67C25.5248 66.4109 26.5496 65.8218 27.6055 65.2148C28.9657 64.455 30.3264 63.6959 31.6875 62.9375C32.3611 62.5476 33.0346 62.1576 33.7285 61.7559C38.7876 58.9672 38.7876 58.9672 42.3008 59.1289C44.5 60 44.5 60 47.5 62C48.0242 63.9712 48.0242 63.9712 48.2305 66.3516C48.3111 67.2023 48.3916 68.0531 48.4746 68.9297C48.5449 69.8191 48.6151 70.7086 48.6875 71.625C48.8103 72.9708 48.8103 72.9708 48.9356 74.3437C49.1361 76.5617 49.3237 78.78 49.5 81C50.16 81 50.82 81 51.5 81C51.5516 80.1602 51.5516 80.1602 51.6043 79.3035C51.7742 76.7625 51.9804 74.2257 52.1875 71.6875C52.241 70.8064 52.2945 69.9253 52.3496 69.0176C52.9144 62.5594 52.9144 62.5594 55.7695 59.832C58.9932 58.8497 60.3315 58.8797 63.5 60C65.5982 61.1232 67.6602 62.3159 69.6875 63.5625C73.3467 66.093 73.3467 66.093 77.5 67C75.8288 62.0533 71.3184 60.1263 67.0235 57.707C64.6226 56.2011 62.7925 54.8377 61.8389 52.1067C61.6055 49.7602 61.7085 48.2261 62.5 46C64.6824 43.6657 67.2204 42.2276 70 40.6875C72.5701 39.1941 75.0265 37.6578 77.5 36C77.5 35.01 77.5 34.02 77.5 33C72.7342 34.7699 68.5674 37.2475 64.2188 39.8555C61.046 41.1911 59.7187 41.0997 56.5 40C53.5 38 53.5 38 52.9758 36.0288C52.9078 35.2433 52.8397 34.4578 52.7695 33.6484C52.689 32.7976 52.6084 31.9469 52.5254 31.0703C52.4552 30.1808 52.3849 29.2914 52.3125 28.375C52.2307 27.4778 52.1488 26.5806 52.0645 25.6562C51.8639 23.4383 51.6763 21.22 51.5 19C50.84 19 50.18 19 49.5 19ZM56.5 19C56.4844 23.1198 56.4844 23.1198 57.5 27C60.7629 29.5971 64.5883 30.6961 68.5 32C71.1768 30.6275 71.1768 30.6275 73.5 29C68.7549 23.8235 63.7285 19.8762 56.5 19ZM27.5 28C28.9885 29.7117 30.2908 30.8918 32.3125 31.9375C35.7814 32.0366 37.7629 29.98 40.5 28C41.49 27.67 42.48 27.34 43.5 27C44.8544 24.2912 44.565 21.9907 44.5 19C38.2657 19 31.786 23.9395 27.5 28ZM20.5 40C19.3365 43.4905 19.3317 46.3228 19.3125 50C19.2983 51.2375 19.2842 52.475 19.2695 53.75C19.2413 57.1476 19.2413 57.1476 21.5 60C24.1142 59.0168 24.1142 59.0168 26.5 57C27.1063 53.5764 27.1063 53.5764 26.8125 49.8125C26.7674 48.5402 26.7223 47.2679 26.6758 45.957C26.5888 44.4933 26.5888 44.4933 26.5 43C24.52 42.01 22.54 41.02 20.5 40ZM79.5 40C76.8858 40.9831 76.8858 40.9831 74.5 43C73.8938 46.4236 73.8938 46.4236 74.1875 50.1875C74.2326 51.4598 74.2777 52.7321 74.3242 54.043C74.3822 55.0188 74.4402 55.9946 74.5 57C76.48 57.99 78.46 58.98 80.5 60C81.6635 56.5095 81.6684 53.6772 81.6875 50C81.7017 48.7625 81.7159 47.525 81.7305 46.25C81.7587 42.8524 81.7587 42.8524 79.5 40ZM32.5 68C29.8233 69.3725 29.8233 69.3725 27.5 71C32.2452 76.1765 37.2715 80.1238 44.5 81C44.7097 76.8591 44.7097 76.8591 43.5 73C41.7229 71.9099 41.7229 71.9099 39.625 70.9375C38.9263 70.5959 38.2277 70.2543 37.5078 69.9023C35.3673 68.9 35.3673 68.9 32.5 68ZM60.5 72C59.51 72.33 58.52 72.66 57.5 73C57.17 75.64 56.84 78.28 56.5 81C63.2653 79.2147 68.1546 76.5006 73.5 72C68.4583 66.7595 66.2957 67.8074 60.5 72Z" fill="white"/>
<path d="M54.5 42C57 43.5 57 43.5 58.5 46C59.291 50.021 59.1215 52.9641 57 56.5C53.4641 58.6215 50.521 58.791 46.5 58C44 56.5 44 56.5 42.5 54C41.709 49.979 41.8785 47.0359 44 43.5C47.5359 41.3785 50.479 41.209 54.5 42ZM48.5 47C48.17 48.65 47.84 50.3 47.5 52C49.975 52.495 49.975 52.495 52.5 53C52.83 51.35 53.16 49.7 53.5 48C51.85 47.67 50.2 47.34 48.5 47Z" fill="white"/>
</svg>
