<svg width="101" height="100" viewBox="0 0 101 100" fill="none" xmlns="http://www.w3.org/2000/svg">
<path d="M42.5 7.99999C46.5923 10.0833 48.7991 11.7617 50.5 16C50.7381 18.0664 50.7381 18.0664 50.7236 20.2903C50.7241 21.1283 50.7246 21.9663 50.7252 22.8297C50.7143 24.1766 50.7143 24.1766 50.7031 25.5508C50.7137 27.4655 50.7254 29.3802 50.7383 31.2949C50.7486 34.3036 50.75 37.3114 50.73 40.3201C50.7152 43.2311 50.7377 46.1399 50.7656 49.0508C50.7503 49.9427 50.7349 50.8346 50.7191 51.7535C50.8084 57.5307 51.9597 60.4817 56.079 64.5805C59.1549 67.6532 59.4666 70.593 59.8125 74.8125C59.5959 80.5837 58.4056 84.9596 54.4023 89.2461C47.8167 95.2534 43.6226 96.3721 34.7305 96.2734C28.6735 95.7607 25.3012 93.0571 21.1875 88.6875C17.285 83.7624 16.2621 79.1526 16.625 72.9375C17.3446 67.2416 19.4471 64.0529 23.5 60C23.7219 57.0604 23.8254 54.2079 23.8437 51.2656C23.8657 49.9594 23.8657 49.9594 23.8881 48.6269C23.9347 45.8346 23.9688 43.0425 24 40.25C24.0412 36.5883 24.095 32.9271 24.1562 29.2656C24.1642 28.0091 24.1642 28.0091 24.1722 26.7271C24.2756 20.6123 24.7876 15.9265 29 11.1875C33.2878 7.43566 36.9552 7.31971 42.5 7.99999ZM37.5 19C36.295 19.9841 36.295 19.9841 36.3865 21.8577C36.3917 22.6484 36.3969 23.4392 36.4023 24.2539C36.4056 25.1079 36.4088 25.9619 36.4121 26.8418C36.4205 27.7396 36.4289 28.6375 36.4375 29.5625C36.442 30.4642 36.4465 31.3659 36.4512 32.2949C36.463 34.53 36.4795 36.765 36.5 39C37.49 39 38.48 39 39.5 39C39.5 32.73 39.5 26.46 39.5 20C38.84 19.67 38.18 19.34 37.5 19ZM36.5 51C36.509 51.7734 36.518 52.5469 36.5273 53.3437C36.318 60.6986 35.2299 63.9847 30.043 69.1289C28.278 71.2692 27.8983 72.4411 27.75 75.1875C28.6591 79.8089 29.6609 81.3044 33.5 84C36.9053 85.2484 36.9053 85.2484 40.5 85C44.758 82.7702 44.758 82.7702 47.5 79C47.7887 76.0648 48.0047 73.8527 47.5 71C45.2289 68.1451 45.2289 68.1451 42.5 66C40.2305 62.5957 40.1345 60.8348 39.875 56.8125C39.8002 55.7258 39.7255 54.6391 39.6484 53.5195C39.5995 52.6881 39.5505 51.8566 39.5 51C38.51 51 37.52 51 36.5 51Z" fill="#81E6DF"/>
<path d="M85.5 63.9999C87.3125 65.3398 87.3125 65.3398 88.5 66.9999C88.9375 69.9999 88.9375 69.9999 88.5 72.9999C87.0625 74.8749 87.0625 74.8749 84.5 75.9999C79.7712 76.5466 75.5991 76.6698 71.5 73.9999C70.5 71.1249 70.5 71.1249 70.5 67.9999C73.4151 62.4613 79.9983 63.0676 85.5 63.9999Z" fill="#81E6DF"/>
<path d="M85.5 38.9999C87.3125 40.3398 87.3125 40.3398 88.5 41.9999C88.9375 44.9999 88.9375 44.9999 88.5 47.9999C87.0625 49.8749 87.0625 49.8749 84.5 50.9999C79.7712 51.5466 75.5991 51.6698 71.5 48.9999C70.5 46.1249 70.5 46.1249 70.5 42.9999C73.4151 37.4613 79.9983 38.0676 85.5 38.9999Z" fill="#81E6DF"/>
<path d="M85.5 13.9999C87.3125 15.3398 87.3125 15.3398 88.5 16.9999C88.9375 19.9999 88.9375 19.9999 88.5 22.9999C87.0625 24.8749 87.0625 24.8749 84.5 25.9999C79.7712 26.5466 75.5991 26.6698 71.5 23.9999C70.5 21.1249 70.5 21.1249 70.5 17.9999C73.4151 12.4613 79.9983 13.0676 85.5 13.9999Z" fill="#81E6DF"/>
</svg>
