<svg width="18" height="25" viewBox="0 0 18 25" fill="none" xmlns="http://www.w3.org/2000/svg">
<path d="M13.623 0.0267623C14.3697 0.265722 14.7205 0.488954 15.2617 1.0172C15.4988 1.24423 15.4988 1.24423 15.7406 1.47585C15.9001 1.63446 16.0597 1.79306 16.2241 1.95648C16.3895 2.11617 16.5548 2.27586 16.7252 2.44039C17.1313 2.83319 17.5335 3.22942 17.9349 3.6263C17.5138 4.83842 16.91 5.5306 15.9456 6.42215C15.6693 6.679 15.393 6.93585 15.1084 7.20048C14.9643 7.33233 14.8201 7.46417 14.6717 7.60002C14.2336 8.00078 13.7989 8.40445 13.3647 8.80878C12.1226 9.95699 10.8928 11.0602 9.51232 12.0633C9.99505 13.2163 10.887 13.9541 11.8283 14.7866C12.1706 15.0968 12.5127 15.4072 12.8547 15.7177C13.3935 16.204 13.9336 16.6889 14.4769 17.1709C15.0019 17.6379 15.521 18.1101 16.0396 18.5833C16.2038 18.7263 16.3679 18.8693 16.5371 19.0166C16.9875 19.4318 16.9875 19.4318 17.6341 20.219C17.6346 21.0475 17.4848 21.4307 16.9678 22.0946C16.8182 22.2287 16.6685 22.3627 16.5143 22.5008C16.3524 22.6485 16.1905 22.7962 16.0237 22.9484C15.8541 23.0976 15.6845 23.2468 15.5097 23.4005C15.3389 23.5551 15.1681 23.7097 14.9921 23.869C14.5719 24.2486 14.1481 24.6247 13.7236 25C12.7101 24.5875 12.0337 24.0592 11.2469 23.3375C10.9991 23.1113 10.7513 22.885 10.496 22.6519C10.2315 22.407 9.96697 22.1621 9.69445 21.9097C9.42169 21.6579 9.14893 21.4061 8.86791 21.1467C8.29235 20.6139 7.7176 20.0804 7.14382 19.546C6.40808 18.8612 5.66692 18.1818 4.92435 17.5035C4.21679 16.855 3.51557 16.2005 2.81347 15.5468C2.54592 15.3036 2.27837 15.0604 2.00271 14.8099C1.75966 14.581 1.5166 14.352 1.26618 14.1162C0.941973 13.8161 0.941973 13.8161 0.611221 13.51C0.187278 12.907 0.187278 12.907 0.198849 12.2047C0.543032 11.3671 0.956534 10.9165 1.63051 10.2783C1.87255 10.0466 2.11459 9.81495 2.36397 9.57628C2.62747 9.33044 2.89097 9.08459 3.16245 8.8313C3.43221 8.57669 3.70196 8.32208 3.97989 8.05976C4.55093 7.52265 5.1231 6.9869 5.69743 6.45291C6.43328 5.76821 7.16205 5.07732 7.88914 4.3845C8.58427 3.72434 9.286 3.07036 9.98703 2.41568C10.2481 2.16642 10.5092 1.91716 10.7781 1.66035C11.024 1.43402 11.2698 1.20769 11.5231 0.974494C11.7379 0.773272 11.9528 0.57205 12.1741 0.36473C12.8212 -0.0297324 12.8212 -0.0297324 13.623 0.0267623Z" fill="white"/>
</svg>
