<svg width="48" height="48" viewBox="0 0 48 48" fill="none" xmlns="http://www.w3.org/2000/svg">
  <!-- Wi-Fi Круги -->
  <circle cx="24" cy="14" r="2" fill="#2563eb" opacity="0.8"/>
  <path d="M16 14c0-4.4 3.6-8 8-8s8 3.6 8 8" stroke="#2563eb" stroke-width="2" fill="none" opacity="0.7"/>
  <path d="M12 14c0-6.6 5.4-12 12-12s12 5.4 12 12" stroke="#2563eb" stroke-width="2" fill="none" opacity="0.5"/>
  <path d="M8 14c0-8.8 7.2-16 16-16s16 7.2 16 16" stroke="#2563eb" stroke-width="2" fill="none" opacity="0.3"/>
  
  <!-- Автомобиль -->
  <g transform="translate(0, 8)">
    <!-- Основной корпус -->
    <path d="M8 20h32c2 0 4 2 4 4v8c0 2-2 4-4 4h-2c0 2-2 4-4 4s-4-2-4-4H18c0 2-2 4-4 4s-4-2-4-4H8c-2 0-4-2-4-4v-8c0-2 2-4 4-4z" fill="#2563eb"/>
    
    <!-- Крыша -->
    <path d="M12 20l4-6h16l4 6H12z" fill="#1d4ed8"/>
    
    <!-- Окна -->
    <path d="M14 18l3-4h14l3 4H14z" fill="#bfdbfe"/>
    
    <!-- Колеса -->
    <circle cx="14" cy="32" r="4" fill="#374151"/>
    <circle cx="34" cy="32" r="4" fill="#374151"/>
    <circle cx="14" cy="32" r="2" fill="#9ca3af"/>
    <circle cx="34" cy="32" r="2" fill="#9ca3af"/>
    
    <!-- Фары -->
    <circle cx="6" cy="24" r="2" fill="#fbbf24"/>
    <circle cx="42" cy="24" r="2" fill="#fbbf24"/>
    
    <!-- Дверные ручки -->
    <rect x="20" y="22" width="2" height="4" rx="1" fill="#1d4ed8"/>
    <rect x="26" y="22" width="2" height="4" rx="1" fill="#1d4ed8"/>
  </g>
  
  <!-- Сигнальные точки -->
  <circle cx="40" cy="20" r="1" fill="#10b981" opacity="0.8"/>
  <circle cx="38" cy="18" r="1" fill="#10b981" opacity="0.6"/>
  <circle cx="36" cy="16" r="1" fill="#10b981" opacity="0.4"/>
</svg> 